<svg width="52" height="43" viewBox="0 0 52 43" fill="none" xmlns="http://www.w3.org/2000/svg">
<path d="M8.95005 26.6998C10.0167 27.7331 11.2 28.5165 12.5 29.0498C13.8 29.5831 15.15 29.9665 16.55 30.1998C17.95 30.3998 19.3834 30.5165 20.8501 30.5498C22.3167 30.5498 23.7334 30.5498 25.1001 30.5498C25.6001 30.5498 26.2667 30.5331 27.1 30.4998C27.9667 30.4665 28.8834 30.3998 29.85 30.2998C30.8501 30.1665 31.8501 29.9998 32.85 29.7998C33.8501 29.5665 34.7501 29.2665 35.5501 28.8998C36.3834 28.5331 37.0501 28.0998 37.5501 27.5998C38.0834 27.0665 38.3501 26.4331 38.3501 25.6998C38.3501 24.9665 38.0667 24.3331 37.5 23.7998C36.9667 23.2331 36.2667 22.7498 35.4 22.3498C34.5334 21.9498 33.5501 21.6165 32.4501 21.3498C31.3834 21.0498 30.3167 20.8331 29.2501 20.6998C28.1834 20.5331 27.1834 20.4165 26.2501 20.3498C25.3501 20.2831 24.6167 20.2498 24.05 20.2498H24.1001C23.3 20.2165 22.3167 20.1331 21.15 19.9998C19.9834 19.8665 18.7667 19.6665 17.5 19.3998C16.2334 19.1331 14.9667 18.7998 13.7001 18.3998C12.4334 17.9665 11.3 17.4498 10.3 16.8498C9.30005 16.2498 8.48338 15.5498 7.85005 14.7498C7.21672 13.9165 6.90005 12.9665 6.90005 11.8998C6.90005 10.7331 7.20005 9.73314 7.80005 8.8998C8.43338 8.06647 9.23338 7.36647 10.2 6.7998C11.2 6.1998 12.3167 5.73314 13.55 5.3998C14.7834 5.03314 16.0334 4.7498 17.3001 4.5498C18.5667 4.3498 19.7667 4.21647 20.9 4.1498C22.0667 4.08314 23.0501 4.0498 23.8501 4.0498C25.1501 4.0498 26.4667 4.11647 27.8 4.2498C29.1667 4.3498 30.5 4.5498 31.8001 4.8498C33.1001 5.1498 34.3667 5.56647 35.6 6.0998C36.8334 6.5998 37.9667 7.2498 39.0001 8.0498L36.35 9.9498C35.3834 9.28314 34.3667 8.76647 33.3 8.3998C32.2334 7.9998 31.1334 7.6998 30.0001 7.4998C28.8667 7.2998 27.7167 7.18314 26.5501 7.1498C25.3834 7.08314 24.25 7.0498 23.15 7.0498C22.3834 7.0498 21.3334 7.0998 20 7.1998C18.7 7.2998 17.4 7.51647 16.1 7.8498C14.8334 8.1498 13.7334 8.63314 12.8 9.2998C11.8667 9.93314 11.4 10.7998 11.4 11.8998C11.4 12.9665 11.85 13.8331 12.75 14.4998C13.65 15.1331 14.8334 15.6498 16.3 16.0498C17.7667 16.4165 19.4334 16.7165 21.3 16.9498C23.2 17.1498 25.1334 17.3665 27.1 17.5998C29.0667 17.8331 30.9834 18.1165 32.85 18.4498C34.7501 18.7498 36.4334 19.1998 37.9001 19.7998C39.3667 20.3665 40.5501 21.1331 41.4501 22.0998C42.3501 23.0331 42.8 24.2331 42.8 25.6998C42.8 26.7331 42.4834 27.6498 41.85 28.4498C41.25 29.2498 40.45 29.9498 39.4501 30.5498C38.45 31.1165 37.3167 31.5998 36.0501 31.9998C34.8167 32.3665 33.5667 32.6665 32.3001 32.8998C31.0667 33.1331 29.8834 33.2998 28.7501 33.3998C27.6167 33.4998 26.6834 33.5498 25.95 33.5498H22.2C20.8334 33.5498 19.4 33.4998 17.9 33.3998C16.4 33.2998 14.9334 33.0831 13.5 32.7498C12.0667 32.3831 10.7 31.8831 9.40005 31.2498C8.10005 30.6165 6.95005 29.7498 5.95005 28.6498L8.95005 26.6998ZM1.80005 27.5998C3.13338 29.7665 4.71672 31.4498 6.55005 32.6498C8.38338 33.8165 10.3667 34.6831 12.5 35.2498C14.6334 35.7831 16.8334 36.0998 19.1 36.1998C21.4 36.2998 23.6834 36.3498 25.95 36.3498C26.95 36.3498 28.1334 36.2831 29.5001 36.1498C30.8667 35.9831 32.2834 35.7331 33.75 35.3998C35.2167 35.0665 36.6501 34.6331 38.0501 34.0998C39.4834 33.5331 40.7501 32.8665 41.85 32.0998C42.9834 31.2998 43.8834 30.3831 44.5501 29.3498C45.2501 28.2831 45.6001 27.0665 45.6001 25.6998C45.6001 24.0665 45.2334 22.6831 44.5001 21.5498C43.8001 20.3831 42.8667 19.4165 41.7001 18.6498C40.5667 17.8498 39.2501 17.2165 37.7501 16.7498C36.2834 16.2498 34.7667 15.8665 33.2001 15.5998C31.6334 15.3331 30.1001 15.1331 28.6001 14.9998C27.1001 14.8665 25.7667 14.7498 24.6 14.6498C24.2001 14.6165 23.4334 14.5498 22.3 14.4498C21.1667 14.3165 20 14.1498 18.8001 13.9498C17.6 13.7165 16.5334 13.4331 15.6 13.0998C14.6667 12.7665 14.2 12.3665 14.2 11.8998C14.2 11.3665 14.6334 10.9665 15.5 10.6998C16.3667 10.4331 17.35 10.2331 18.4501 10.0998C19.5834 9.96647 20.6667 9.8998 21.7 9.8998C22.7667 9.86647 23.4834 9.8498 23.8501 9.8498C24.9167 9.8498 26 9.8998 27.1 9.9998C28.2001 10.0665 29.2667 10.2331 30.3 10.4998C31.3667 10.7665 32.3667 11.1498 33.3 11.6498C34.2667 12.1498 35.1501 12.7998 35.9501 13.5998L43.25 8.6998C41.9834 6.96647 40.5501 5.61647 38.9501 4.6498C37.3501 3.6498 35.6501 2.8998 33.8501 2.3998C32.0501 1.8998 30.1667 1.58314 28.2 1.4498C26.2667 1.31647 24.3167 1.2498 22.3501 1.2498C21.3167 1.2498 20.1334 1.33314 18.8001 1.4998C17.5 1.63314 16.1667 1.86647 14.8 2.1998C13.4667 2.53314 12.15 2.96647 10.85 3.4998C9.58338 4.03314 8.45005 4.6998 7.45005 5.4998C6.45005 6.2998 5.65005 7.23314 5.05005 8.2998C4.45005 9.33314 4.15005 10.5331 4.15005 11.8998C4.15005 13.4665 4.53338 14.8165 5.30005 15.9498C6.06672 17.0831 7.08338 18.0498 8.35005 18.8498C9.61672 19.6498 11.05 20.2998 12.65 20.7998C14.25 21.2998 15.8667 21.7165 17.5 22.0498C19.1667 22.3498 20.7667 22.5998 22.3 22.7998C23.8667 22.9665 25.2334 23.1165 26.4 23.2498C26.7334 23.2831 27.3834 23.3498 28.3501 23.4498C29.35 23.5498 30.3834 23.6998 31.45 23.8998C32.5167 24.0665 33.4667 24.2998 34.3001 24.5998C35.1334 24.8998 35.5501 25.2665 35.5501 25.6998C35.5501 26.0665 35.2834 26.3831 34.7501 26.6498C34.2167 26.8831 33.5334 27.0831 32.7001 27.2498C31.8667 27.3831 30.9501 27.4831 29.9501 27.5498C28.9501 27.6165 27.9667 27.6665 27.0001 27.6998C26.0667 27.7331 25.2167 27.7498 24.4501 27.7498C23.7167 27.7498 23.2 27.7498 22.9 27.7498C21.6334 27.7498 20.3834 27.6998 19.1501 27.5998C17.9167 27.4665 16.7167 27.2331 15.5501 26.8998C14.3834 26.5331 13.2834 26.0331 12.25 25.3998C11.2167 24.7665 10.2834 23.9165 9.45005 22.8498L1.80005 27.5998ZM9.05005 21.5998L6.65005 19.1498C5.48338 18.2831 4.56672 17.2665 3.90005 16.0998C3.23338 14.8998 2.90005 13.4998 2.90005 11.8998C2.90005 10.3665 3.21672 9.01647 3.85005 7.8498C4.51672 6.6498 5.38338 5.61647 6.45005 4.7498C7.51672 3.88314 8.73338 3.1498 10.1 2.5498C11.4667 1.91647 12.8667 1.41647 14.3 1.0498C15.7334 0.683137 17.15 0.41647 18.5501 0.249804C19.9501 0.0831374 21.2167 -0.000195861 22.3501 -0.000195861C24.3167 -0.000195861 26.3001 0.0664699 28.3001 0.199802C30.3001 0.299802 32.2501 0.599802 34.1501 1.0998C36.0834 1.5998 37.9334 2.36647 39.7001 3.3998C41.4667 4.43314 43.1167 5.88314 44.65 7.7498C45.6834 8.78314 46.5001 9.6498 47.1001 10.3498C47.7001 11.0165 48.1667 11.5831 48.5001 12.0498C48.8667 12.5165 49.1334 12.8998 49.3001 13.1998C49.4667 13.4665 49.6334 13.7165 49.8 13.9498L43.4001 18.2498C43.5667 18.4165 43.7501 18.5665 43.95 18.6998C44.1834 18.7998 44.5001 19.0165 44.9001 19.3498C45.3001 19.6831 45.8167 20.1665 46.4501 20.7998C47.1167 21.3998 48.0001 22.2665 49.1001 23.3998C49.9 24.2331 50.5334 25.2998 51.0001 26.5998C51.4667 27.8998 51.7001 29.2665 51.7001 30.6998C51.7001 32.1998 51.3334 33.5331 50.6001 34.6998C49.8667 35.8665 48.9167 36.8831 47.7501 37.7498C46.5834 38.6165 45.2501 39.3498 43.7501 39.9498C42.2501 40.5498 40.7334 41.0331 39.2001 41.3998C37.6667 41.7665 36.1667 42.0331 34.7 42.1998C33.2667 42.3665 32.0167 42.4498 30.9501 42.4498C28.9834 42.4498 26.9834 42.4498 24.95 42.4498C22.9167 42.4498 20.9167 42.2831 18.95 41.9498C17.0167 41.6165 15.1334 41.0665 13.3 40.2998C11.4667 39.5331 9.78338 38.3665 8.25005 36.7998C6.95005 35.5998 5.85005 34.5498 4.95005 33.6498C4.08338 32.7165 3.33338 31.8831 2.70005 31.1498C2.10005 30.3831 1.58338 29.6831 1.15005 29.0498C0.750049 28.4165 0.366716 27.7998 4.88376e-05 27.1998L9.05005 21.5998Z" fill="#9810FA"/>
</svg>
